# xmcd
#
# Track frame offsets: 
#        150
#        16219
#        41863
#        61054
#        70988
#        94193
#        108334
#        122776
#        138807
#        162871
#        177067
#        203364
#        222351
#
# Disc length: 3189 seconds
#
# Revision: 1
# Processed by: cddbd v1.5.2PL0 Copyright (c) Steve Scherf et al.
# Submitted via: ExactAudioCopy v0.99pb4
#
DISCID=ac0c730d
DTITLE=Mina - Napoli secondo estratto
DYEAR=2003
DGENRE=Pop
TTITLE0=Tu ca nun chiagne!
TTITLE1='O cielo ce manna 'sti ccose
TTITLE2=Te voglio bene assaje
TTITLE3=Carmela
TTITLE4=Napule è
TTITLE5=Maria Marì!...
TTITLE6='O sole mio
TTITLE7=Canzona appassiunata
TTITLE8=Era de maggio
TTITLE9=Guapparia
TTITLE10=I' te vurria vasà!...
TTITLE11=Cu 'e mmane
TTITLE12='O cuntrario 'e l'ammore
EXTD=
EXTT0=
EXTT1=
EXTT2=
EXTT3=
EXTT4=
EXTT5=
EXTT6=
EXTT7=
EXTT8=
EXTT9=
EXTT10=
EXTT11=
EXTT12=
PLAYORDER=
